#!OML:ASF E:\motion texture\Top Level 1\Subject 1\Session 1\male.ASF
:FULLY-SPECIFIED
:DEGREES
369
root -22.1389 18.1009 3.9378 802.859 -80.7766 -799.493
lowerback -1.22588 0.325008 6.65473
upperback -0.705851 0.267498 3.66247
thorax -0.0224304 0.0814719 0.0447452
lowerneck -14.9202 -0.718497 -5.9068
upperneck 28.8411 1.01255 -3.46086
head 11.9787 -0.90115 -0.193174
rclavicle 1.77043e-015 6.75868e-015
rhumerus -30.2346 -10.8434 -75.4141
rradius 92.9473
rwrist -41.7
rhand -11.7038 -46.7268
rfingers 7.12502
rthumb 14.3424 -76.2113
lclavicle 1.77043e-015 6.75868e-015
lhumerus -37.747 4.56676 80.9553
lradius 88.6372
lwrist 29.6215
lhand -2.89635 32.5344
lfingers 7.12502
lthumb 22.8134 61.2052
rfemur -4.5039 4.90367 34.8601
rtibia 14.1819
rfoot -8.16124 -11.5603
rtoes 16.8397
lfemur -28.7509 3.91567 -5.58663
ltibia 61.1991
lfoot -5.13794 -1.79693
ltoes -13.8741
370
root -22.2783 18.0957 3.93238 803.552 -80.7334 -800.154
lowerback -1.17944 0.457344 6.83221
upperback -0.734221 0.451062 3.54621
thorax -0.0669393 0.171806 -0.171226
lowerneck -14.8203 -0.74732 -5.96913
upperneck 28.7709 0.982142 -3.47119
head 11.9315 -0.918457 -0.189201
rclavicle -6.89534e-016 -1.09332e-014
rhumerus -30.2305 -12.1298 -74.3648
rradius 93.2673
rwrist -41.4771
rhand -11.8277 -46.561
rfingers 7.12502
rthumb 14.2231 -76.054
lclavicle -6.89534e-016 -1.09332e-014
lhumerus -38.0559 5.66832 79.9952
lradius 89.5579
lwrist 29.3583
lhand -2.35871 32.0721
lfingers 7.12502
lthumb 23.3293 60.6785
rfemur -4.02241 5.03242 35.047
rtibia 14.1995
rfoot -8.55692 -11.6436
rtoes 16.4052
lfemur -29.3394 3.99565 -5.54774
ltibia 59.9401
lfoot -5.81329 -1.20853
ltoes -14.012
371
root -22.4178 18.0894 3.92765 804.151 -80.6862 -800.711
lowerback -1.14508 0.583855 7.00873
upperback -0.763592 0.625635 3.43365
thorax -0.104439 0.257578 -0.383015
lowerneck -14.7065 -0.765568 -6.0433
upperneck 28.7085 0.969044 -3.48511
head 11.8846 -0.930344 -0.182157
rclavicle -1.11195e-015 -4.4329e-014
rhumerus -30.2392 -13.4134 -73.2603
rradius 93.5751
rwrist -41.2739
rhand -12.0121 -46.4705
rfingers 7.12502
rthumb 14.0454 -75.9759
lclavicle -1.11195e-015 -4.4329e-014
lhumerus -38.3385 6.81047 78.9979
lradius 90.4765
lwrist 29.1977
lhand -1.84339 31.6205
lfingers 7.12502
lthumb 23.8236 60.1632
rfemur -3.5439 5.14838 35.2273
rtibia 14.1978
rfoot -8.93492 -11.7271
rtoes 15.9548
lfemur -29.873 4.04467 -5.50605
ltibia 58.5303
lfoot -6.4143 -0.577626
ltoes -14.2748
372
root -22.557 18.0821 3.92349 804.611 -80.6307 -801.113
lowerback -1.1273 0.698313 7.18456
upperback -0.792846 0.782314 3.326
thorax -0.132005 0.334466 -0.589479
lowerneck -14.5849 -0.771389 -6.12482
upperneck 28.6541 0.976586 -3.50723
head 11.8392 -0.93545 -0.174108
rclavicle 8.82107e-016 -1.27222e-014
rhumerus -30.2533 -14.6882 -72.1141
rradius 93.8648
rwrist -41.0888
rhand -12.2155 -46.4169
rfingers 7.12502
rthumb 13.8494 -75.9358
lclavicle 8.82107e-016 -1.27222e-014
lhumerus -38.598 7.9936 77.9626
lradius 91.3932
lwrist 29.1148
lhand -1.38792 31.2044
lfingers 7.12502
lthumb 24.2603 59.6896
rfemur -3.07721 5.25169 35.4057
rtibia 14.1791
rfoot -9.30264 -11.8169
rtoes 15.5065
lfemur -30.3649 4.05688 -5.45578
ltibia 56.9798
lfoot -6.9487 0.0802445
ltoes -14.6265
373
root -22.6958 18.0737 3.92001 804.941 -80.5787 -801.367
lowerback -1.12753 0.802433 7.35142
upperback -0.819331 0.923307 3.21812
thorax -0.14628 0.403889 -0.791184
lowerneck -14.4657 -0.769988 -6.2173
upperneck 28.6092 0.997116 -3.5292
head 11.7981 -0.936493 -0.162507
rclavicle 3.19919e-016 -7.7526e-015
rhumerus -30.2728 -15.9602 -70.934
rradius 94.1363
rwrist -40.9247
rhand -12.4134 -46.3695
rfingers 7.12502
rthumb 13.6586 -75.9013
lclavicle 3.19919e-016 -7.7526e-015
lhumerus -38.8374 9.20427 76.8924
lradius 92.3128
lwrist 29.0942
lhand -1.05177 30.8427
lfingers 7.12502
lthumb 24.5826 59.2844
rfemur -2.62612 5.33787 35.567
rtibia 14.149
rfoot -9.66291 -11.9025
rtoes 15.0349
lfemur -30.81 4.0275 -5.40893
ltibia 55.2834
lfoot -7.41153 0.752623
ltoes -14.939
374
root -22.8348 18.0646 3.91697 805.176 -80.5268 -801.506
lowerback -1.14675 0.89914 7.51128
upperback -0.847533 1.05251 3.11223
thorax -0.15137 0.467575 -0.986796
lowerneck -14.3672 -0.767923 -6.30782
upperneck 28.5922 1.02436 -3.56676
head 11.7725 -0.937962 -0.156711
rclavicle -5.18238e-015 1.29707e-014
rhumerus -30.3391 -17.2082 -69.7138
rradius 94.4173
rwrist -40.8018
rhand -12.607 -46.3174
rfingers 7.12502
rthumb 13.472 -75.8617
lclavicle -5.18238e-015 1.29707e-014
lhumerus -39.0663 10.4307 75.7941
lradius 93.2276
lwrist 29.1053
lhand -0.832014 30.5156
lfingers 7.12502
lthumb 24.7932 58.9285
rfemur -2.18115 5.41021 35.7169
rtibia 14.087
rfoot -10.0078 -11.9827
rtoes 14.5577
lfemur -31.204 3.95806 -5.35638
ltibia 53.4351
lfoot -7.78587 1.42252
ltoes -15.1349
375
root -22.9736 18.0546 3.91479 805.359 -80.4744 -801.573
lowerback -1.19084 0.989397 7.66976
upperback -0.874033 1.17019 3.00764
thorax -0.140508 0.525941 -1.17992
lowerneck -14.2553 -0.767389 -6.40047
upperneck 28.5736 1.05129 -3.61712
head 11.7438 -0.941464 -0.155351
rclavicle -9.77772e-015 -4.40557e-014
rhumerus -30.4108 -18.4446 -68.4699
rradius 94.6598
rwrist -40.7023
rhand -12.7722 -46.195
rfingers 7.12502
rthumb 13.3128 -75.7498
lclavicle -9.77772e-015 -4.40557e-014
lhumerus -39.3011 11.6508 74.6713
lradius 94.1476
lwrist 29.1435
lhand -0.724793 30.3037
lfingers 7.12502
lthumb 24.896 58.7024
rfemur -1.7564 5.46378 35.8546
rtibia 14.02
rfoot -10.3525 -12.0485
rtoes 14.0843
lfemur -31.5444 3.85096 -5.2969
ltibia 51.4374
lfoot -8.06866 2.08075
ltoes -15.2289
376
root -23.1123 18.0441 3.91326 805.513 -80.4227 -801.59
lowerback -1.2526 1.07323 7.82016
upperback -0.903613 1.27744 2.90642
thorax -0.122956 0.579199 -1.36481
lowerneck -14.1673 -0.758699 -6.48784
upperneck 28.5866 1.09448 -3.68016
head 11.7324 -0.94066 -0.157993
rclavicle 4.87896e-015 1.50952e-014
rhumerus -30.4814 -19.6752 -67.2063
rradius 94.8566
rwrist -40.6063
rhand -12.894 -46.0386
rfingers 7.12502
rthumb 13.1954 -75.601
lclavicle 4.87896e-015 1.50952e-014
lhumerus -39.5429 12.8555 73.5251
lradius 95.0617
lwrist 29.2146
lhand -0.762411 30.1778
lfingers 7.12502
lthumb 24.8599 58.5815
rfemur -1.35633 5.5054 35.9807
rtibia 13.955
rfoot -10.6985 -12.1032
rtoes 13.5995
lfemur -31.828 3.70533 -5.22789
ltibia 49.2858
lfoot -8.23847 2.71991
ltoes -15.2077
377
root -23.2503 18.033 3.91268 805.673 -80.3702 -801.592
lowerback -1.33396 1.14752 7.96246
upperback -0.934832 1.36967 2.81114
thorax -0.0967859 0.625146 -1.53878
lowerneck -14.0795 -0.739751 -6.58071
upperneck 28.6132 1.1543 -3.74723
head 11.7263 -0.934513 -0.159174
rclavicle 1.24442e-014 -1.69215e-014
rhumerus -30.5165 -20.8962 -65.9395
rradius 94.974
rwrist -40.4891
rhand -12.9735 -45.8207
rfingers 7.12502
rthumb 13.1187 -75.3881
lclavicle 1.24442e-014 -1.69215e-014
lhumerus -39.7762 14.0603 72.3627
lradius 95.9462
lwrist 29.3115
lhand -0.920311 30.1124
lfingers 7.12502
lthumb 24.7086 58.5368
rfemur -0.986661 5.53243 36.0958
rtibia 13.9
rfoot -11.0414 -12.1389
rtoes 13.093
lfemur -32.0561 3.52687 -5.1473
ltibia 46.9821
lfoot -8.28572 3.33653
ltoes -15.1144
378
root -23.3886 18.0215 3.91252 805.867 -80.3198 -801.608
lowerback -1.4339 1.22069 8.09327
upperback -0.968686 1.45832 2.72072
thorax -0.0628893 0.669477 -1.70091
lowerneck -13.9901 -0.711134 -6.67231
upperneck 28.6521 1.22941 -3.82294
head 11.7246 -0.92335 -0.161922
rclavicle -5.79892e-015 -1.23743e-014
rhumerus -30.5262 -22.1271 -64.666
rradius 95.0173
rwrist -40.346
rhand -12.9922 -45.5812
rfingers 7.12502
rthumb 13.1007 -75.1498
lclavicle -5.79892e-015 -1.23743e-014
lhumerus -39.9839 15.2527 71.1985
lradius 96.7803
lwrist 29.4283
lhand -1.09434 30.0562
lfingers 7.12502
lthumb 24.5418 58.5034
rfemur -0.649339 5.5574 36.2016
rtibia 13.8663
rfoot -11.386 -12.1673
rtoes 12.5585
lfemur -32.218 3.31421 -5.05264
ltibia 44.5149
lfoot -8.20343 3.93353
ltoes -15.0715
379
root -23.5279 18.0095 3.91233 806.114 -80.2727 -801.655
lowerback -1.54894 1.30145 8.21201
upperback -1.01037 1.55569 2.63348
thorax -0.0275475 0.718014 -1.85241
lowerneck -13.9035 -0.679799 -6.753
upperneck 28.709 1.31073 -3.91654
head 11.7309 -0.911695 -0.172714
rclavicle 1.53748e-014 1.45113e-014
rhumerus -30.5413 -23.3782 -63.3731
rradius 95.0079
rwrist -40.1856
rhand -12.928 -45.3121
rfingers 7.12502
rthumb 13.1626 -74.8766
lclavicle 1.53748e-014 1.45113e-014
lhumerus -40.1422 16.4239 70.054
lradius 97.5412
lwrist 29.5739
lhand -1.38296 30.0286
lfingers 7.12502
lthumb 24.2651 58.5131
rfemur -0.339307 5.58209 36.2985
rtibia 13.8455
rfoot -11.7174 -12.1848
rtoes 11.9783
lfemur -32.3103 3.06888 -4.94019
ltibia 41.8772
lfoot -7.96868 4.50777
ltoes -15.0286
